<svg width="53" height="47" viewBox="0 0 53 47" fill="none" xmlns="http://www.w3.org/2000/svg">
<path d="M48.7484 39C50.6918 39 52.2578 37.4382 52.2578 35.5C52.2578 33.5618 50.6918 32 48.7484 32C46.805 32 45.2578 33.5618 45.2578 35.5C45.2578 37.4382 46.805 39 48.7484 39Z" fill="#FF1B5F"/>
<path fill-rule="evenodd" clip-rule="evenodd" d="M11.4145 1.63542C8.67274 3.48477 7.36738 7.07123 4.75665 14.2441L3.29411 18.2624C0.683379 25.4354 -0.621985 29.0218 0.289593 32.2009C0.583995 33.2276 1.03816 34.2015 1.63542 35.087C3.48477 37.8288 7.07123 39.1341 14.2441 41.7449L18.2624 43.2074L18.2625 43.2074C25.4354 45.8182 29.0218 47.1235 32.2009 46.2119C33.2276 45.9175 34.2015 45.4634 35.087 44.8661C36.7467 43.7466 37.8801 41.9905 39.0953 39.1877H37.4703V37.7351C36.3721 38.4362 35.0675 38.8425 33.6679 38.8425C29.76 38.8425 26.592 35.6745 26.592 31.7666C26.592 27.8586 29.76 24.6906 33.6679 24.6906C35.0675 24.6906 36.3721 25.0969 37.4703 25.798V19.4206H41.7276V32.3048C41.7334 32.289 41.7391 32.2732 41.7449 32.2574L43.2074 28.2391C45.8181 21.0662 47.1235 17.4797 46.2119 14.3007C45.9175 13.2739 45.4634 12.3 44.8661 11.4145C43.0168 8.67274 39.4303 7.36738 32.2574 4.75665L28.2391 3.29411C21.0662 0.683379 17.4797 -0.621985 14.3007 0.289593C13.2739 0.583995 12.3 1.03816 11.4145 1.63542ZM22.867 23.8171C24.3086 23.8171 25.4772 22.6485 25.4772 21.2069C25.4772 19.7654 24.3086 18.5967 22.867 18.5967C21.4255 18.5967 20.2568 19.7654 20.2568 21.2069C20.2568 22.6485 21.4255 23.8171 22.867 23.8171ZM20.7733 25.0225H25.0306V39.1876H20.7733V25.0225ZM30.2239 31.7666C30.2239 33.6686 31.7659 35.2106 33.6679 35.2106C35.57 35.2106 37.1119 33.6686 37.1119 31.7666C37.1119 29.8645 35.57 28.3226 33.6679 28.3226C31.7659 28.3226 30.2239 29.8645 30.2239 31.7666Z" fill="#2C2E35"/>
</svg>
