<svg width="20" height="20" viewBox="0 0 20 20" fill="none" xmlns="http://www.w3.org/2000/svg">
<path fill-rule="evenodd" clip-rule="evenodd" d="M14.6863 8.34344C14.6863 11.8469 11.8463 14.6869 8.34316 14.6869C4.83999 14.6869 2 11.8469 2 8.34344C2 4.83999 4.83999 2 8.34316 2C11.8463 2 14.6863 4.83999 14.6863 8.34344ZM13.4937 14.9076C12.0754 16.0222 10.2869 16.6869 8.34316 16.6869C3.73536 16.6869 0 12.9514 0 8.34344C0 3.73549 3.73536 0 8.34316 0C12.951 0 16.6863 3.73549 16.6863 8.34344C16.6863 10.2868 16.0219 12.0751 14.9078 13.4933L20.0008 18.5864L18.5865 20.0006L13.4937 14.9076Z" fill="#2C2E35"/>
</svg>
