<svg width="163" height="25" viewBox="0 0 163 25" fill="none" xmlns="http://www.w3.org/2000/svg">
<path fill-rule="evenodd" clip-rule="evenodd" d="M0.690377 13.7691C1.61088 14.6816 3.10331 14.6816 4.02381 13.7691L13.0854 4.78588C14.0059 3.87334 14.0059 2.39382 13.0854 1.48128C12.1649 0.568741 10.6725 0.568739 9.75195 1.48128L0.690377 10.4645C-0.230125 11.377 -0.230126 12.8565 0.690377 13.7691ZM13.0131 14.66C12.0926 15.5726 10.6001 15.5726 9.67964 14.66C8.75913 13.7475 8.75913 12.268 9.67964 11.3554L18.7412 2.37227C19.6617 1.45973 21.1541 1.45973 22.0746 2.37227C22.9951 3.28481 22.9951 4.76433 22.0746 5.67687L13.0131 14.66ZM13.9122 24.0169C12.9917 24.9294 11.4993 24.9294 10.5788 24.0169C9.6583 23.1044 9.6583 21.6248 10.5788 20.7123L19.6404 11.7291C20.5609 10.8166 22.0533 10.8166 22.9738 11.7291C23.8943 12.6417 23.8943 14.1212 22.9738 15.0337L13.9122 24.0169Z" fill="#2C2E35"/>
<path d="M51.0929 20.6328V4.81689H47.1298L42.4872 16.1719H42.3967L37.7541 4.81689H33.791V20.6328H36.837V9.95735H36.9275L41.3662 20.6328H43.5177L47.9564 9.95735H48.0469V20.6328H51.0929Z" fill="#2C2E35"/>
<path d="M58.3896 4.81689H54.97V15.043C54.97 18.5284 57.6309 20.8959 61.8205 20.8959C65.9988 20.8959 68.6597 18.5284 68.6597 15.043V4.81689H65.2401V14.7142C65.2401 16.7419 64.0059 18.0681 61.8205 18.0681C59.6238 18.0681 58.3896 16.7419 58.3896 14.7142V4.81689Z" fill="#2C2E35"/>
<path d="M83.1127 17.8927H75.9677V4.81689H72.5481V20.6328H83.1127V17.8927Z" fill="#2C2E35"/>
<path d="M93.5346 20.6328C97.0221 20.6328 99.1848 18.8901 99.1848 16.1062C99.1848 14.0127 97.5543 12.4454 95.3349 12.281V12.1933C97.0674 11.9412 98.4035 10.4944 98.4035 8.76266C98.4035 6.3404 96.4786 4.81689 93.41 4.81689H86.299V20.6328H93.5346ZM89.7186 7.283H92.5268C94.1234 7.283 95.0406 8.00639 95.0406 9.2778C95.0406 10.615 93.9988 11.3932 92.1758 11.3932H89.7186V7.283ZM89.7186 18.1667V13.5743H92.5834C94.5989 13.5743 95.6973 14.3635 95.6973 15.8431C95.6973 17.3557 94.6329 18.1667 92.6627 18.1667H89.7186Z" fill="#2C2E35"/>
<path d="M113.117 17.8927H105.712V13.9031H112.698V11.3603H105.712V7.54605H113.117V4.81689H102.292V20.6328H113.117V17.8927Z" fill="#2C2E35"/>
<path d="M120.164 14.8457H122.905L125.951 20.6328H129.823L126.381 14.3525C128.261 13.6401 129.348 11.8864 129.348 9.85871C129.348 6.73498 127.196 4.81689 123.437 4.81689H116.745V20.6328H120.164V14.8457ZM120.164 7.40357H123.075C124.773 7.40357 125.837 8.39001 125.837 9.92447C125.837 11.4918 124.83 12.4454 123.109 12.4454H120.164V7.40357Z" fill="#2C2E35"/>
<path d="M136.18 14.8457H138.92L141.966 20.6328H145.839L142.396 14.3525C144.276 13.6401 145.363 11.8864 145.363 9.85871C145.363 6.73498 143.212 4.81689 139.452 4.81689H132.76V20.6328H136.18V14.8457ZM136.18 7.40357H139.09C140.789 7.40357 141.853 8.39001 141.853 9.92447C141.853 11.4918 140.845 12.4454 139.124 12.4454H136.18V7.40357Z" fill="#2C2E35"/>
<path d="M156.498 20.6328V14.7252L162.194 4.81689H158.525L154.857 11.5685H154.777L151.12 4.81689H147.395L153.079 14.7252V20.6328H156.498Z" fill="#2C2E35"/>
</svg>
