<svg width="83" height="26" viewBox="0 0 83 26" fill="none" xmlns="http://www.w3.org/2000/svg">
<path fill-rule="evenodd" clip-rule="evenodd" d="M52.9061 13.4807C52.9061 20.3814 47.1749 25.9755 40.1051 25.9755C33.0353 25.9755 27.3041 20.3814 27.3041 13.4807C27.3041 6.57997 33.0353 0.98584 40.1051 0.98584C47.1749 0.98584 52.9061 6.57997 52.9061 13.4807ZM66.8467 1.66482C67.0444 1.35196 67.5055 1.35196 67.7032 1.66482L82.5296 25.1359C82.7394 25.468 82.4977 25.8984 82.1014 25.8984H52.4485C52.0521 25.8984 51.8105 25.468 52.0202 25.1359L66.8467 1.66482ZM0.359375 24.9172V1.98327C0.359375 1.70792 0.585357 1.4847 0.86412 1.4847H15.5017C18.5302 1.65089 24.5871 3.7781 24.5871 10.9574C24.5871 17.8633 17.4261 20.4021 13.4364 20.8813C13.1766 20.9126 12.978 21.1272 12.978 21.3858V24.9172C12.978 25.1926 12.752 25.4158 12.4732 25.4158H0.86412C0.585357 25.4158 0.359375 25.1926 0.359375 24.9172Z" fill="#2C2E35"/>
</svg>
