<svg width="155" height="36" viewBox="0 0 155 36" fill="none" xmlns="http://www.w3.org/2000/svg">
<path d="M1.72852 1.74219L1.7287 10.475M1.7287 28.4372V10.475M1.7287 10.475C1.7287 10.475 6.74945 10.475 12.4994 10.475C14.4639 10.475 15.9774 12.1466 15.9774 14.0505C15.9774 19.85 15.9774 28.4372 15.9774 28.4372" stroke="#2C2E35" stroke-width="2.23099"/>
<path d="M88.4219 1.74219L88.4221 10.475M88.4221 28.4372V10.475M88.4221 10.475C88.4221 10.475 93.4428 10.475 99.1928 10.475C101.157 10.475 102.671 12.1466 102.671 14.0505C102.671 19.85 102.671 28.4372 102.671 28.4372" stroke="#2C2E35" stroke-width="2.23099"/>
<path d="M111.398 28.6514V9.89844C111.398 9.89844 116.419 9.89844 122.169 9.89844C124.134 9.89844 125.647 11.57 125.647 13.4739C125.647 19.2734 125.647 28.4367 125.647 28.4367" stroke="#2C2E35" stroke-width="2.23099"/>
<path d="M24.5371 9.15723V28.437" stroke="#2C2E35" stroke-width="2.23099"/>
<path d="M134.143 9.15723L134.142 28.437" stroke="#2C2E35" stroke-width="2.23099"/>
<path d="M34.2969 1C34.2969 1 34.2969 5.26777 34.2969 10.1379M41.0534 27.6427C41.0534 27.6427 37.5954 27.9994 36.0726 26.8509C35.0143 26.0528 34.2969 25.4076 34.2969 24.0801C34.2969 23.3406 34.2969 16.2629 34.2969 10.1379M34.2969 10.1379H41.0534" stroke="#2C2E35" stroke-width="2.23099"/>
<path d="M61.6971 27.3102C61.6971 27.3102 51.4751 27.3102 49.3725 27.3102C48.7768 27.3102 47.4836 27.0646 46.8773 26.2526C46.3239 25.5114 46.1465 24.7424 46.1465 24.0424C46.1465 21.1012 46.1465 17.5884 46.1465 17.5884M46.1465 17.5884C46.1465 17.5884 46.1465 15.174 46.1465 12.5632C46.1465 11.2821 47.2592 10.431 48.116 10.161C48.9487 9.8986 50.1214 9.89844 50.8254 9.89844C53.9885 9.89885 56.2104 9.90347 56.9893 9.90752C57.7683 9.91156 58.5951 10.1673 59.0914 10.6024C59.7343 11.1661 60.0426 11.9088 60.0426 12.9296C60.0426 13.9504 60.0426 17.5884 60.0426 17.5884H46.1465Z" stroke="#2C2E35" stroke-width="2.23099"/>
<path d="M81.033 27.3102C81.033 27.3102 74.1646 27.3102 72.0619 27.3102C71.4662 27.3102 70.1731 27.0646 69.5668 26.2526C69.0134 25.5114 68.8359 24.7424 68.8359 24.0424C68.8359 21.1012 68.8359 17.5884 68.8359 17.5884C68.8359 17.5884 68.8359 15.174 68.8359 12.5632C68.8359 11.2821 69.9487 10.431 70.8055 10.161C71.6382 9.8986 72.8109 9.89844 73.5148 9.89844C76.678 9.89885 79.9868 9.90347 80.7658 9.90752" stroke="#2C2E35" stroke-width="2.23099"/>
<path d="M155 27.3102C155 27.3102 148.131 27.3102 146.029 27.3102C145.433 27.3102 144.14 27.0646 143.534 26.2526C142.98 25.5114 142.803 24.7424 142.803 24.0424C142.803 21.1012 142.803 17.5884 142.803 17.5884C142.803 17.5884 142.803 15.174 142.803 12.5632C142.803 11.2821 143.915 10.431 144.772 10.161C145.605 9.8986 146.778 9.89844 147.482 9.89844C150.645 9.89885 153.954 9.90347 154.733 9.90752" stroke="#2C2E35" stroke-width="2.23099"/>
<ellipse cx="24.537" cy="34.0032" rx="1.8768" ry="1.85382" fill="#2C2E35"/>
<ellipse cx="134.142" cy="3.59503" rx="1.8768" ry="1.85382" fill="#2C2E35"/>
</svg>
