<svg width="153" height="22" viewBox="0 0 153 22" fill="none" xmlns="http://www.w3.org/2000/svg">
<path d="M0 8.90287V21.3395H7.11727V13.8737H21.2795V10.2813H7.11727V5.758H21.9327V0.97998H7.91745C5.81012 1.01303 3.80006 1.86157 2.31948 3.34317C0.838902 4.82476 0.00604842 6.82108 0 8.90287Z" fill="#2C2E35"/>
<path d="M70.1719 0.981934L65.2479 6.43368L60.2925 0.981934H52.0039L61.0541 11.145L52.0039 21.3391H60.2925L65.2141 15.8064H65.2479L70.1719 21.3391H78.4243L69.4078 11.145L78.4243 0.981934H70.1719Z" fill="#2C2E35"/>
<path d="M86.5226 0.981934H85.6309V21.3415H100.444V20.582H86.5226V0.981934Z" fill="#2C2E35"/>
<path d="M152.6 11.6497V10.9284H138.626V1.74137H152.598V0.981934H137.734V21.3343H152.598V20.5749H138.626V11.6497H152.6Z" fill="#2C2E35"/>
<path d="M130.103 19.2802L112.936 0.97998V21.3419H113.827V3.0345L130.995 21.3348L130.997 0.982361H130.106L130.103 19.2802Z" fill="#2C2E35"/>
<path d="M105.894 0.981934H105.002V21.3486H105.894V0.981934Z" fill="#2C2E35"/>
<path d="M43.2782 0.97998H32.3239C28.2266 0.97998 24.8379 4.37006 24.8379 8.49577V13.7737C24.8379 17.9494 28.2121 21.3395 32.3239 21.3395H43.2782C47.4189 21.3395 50.8028 17.9494 50.8028 13.7737V8.49815C50.808 6.51746 50.0196 4.61518 48.6098 3.20661C47.2001 1.79804 45.2834 0.99758 43.2782 0.97998ZM43.7602 16.7353H31.878V5.58659H43.7602V16.7353Z" fill="#2C2E35"/>
</svg>
