<svg width="156" height="30" viewBox="0 0 156 30" fill="none" xmlns="http://www.w3.org/2000/svg">
<path d="M104.432 15.9537V18.1553C104.432 19.8637 105.49 20.7179 107.606 20.7179H110.984C111.745 20.7179 112.126 21.1871 112.126 22.1255C112.126 23.0639 111.745 23.5331 110.984 23.5331H107.606C103.892 23.5331 102.035 21.7526 102.035 18.1914V11.1173C102.035 7.70055 103.694 5.99219 107.012 5.99219H113.61C116.851 5.99219 118.472 7.53213 118.472 10.612V14.6544C118.472 15.5206 118.122 15.9537 117.422 15.9537H104.432ZM104.432 13.4633H115.893C116.014 13.4633 116.075 13.3791 116.075 13.2107V11.3338C116.075 9.6736 115.193 8.84347 113.427 8.84347H107.149C105.338 8.84347 104.432 9.6736 104.432 11.3338V13.4633ZM121.003 11.7309C121.003 7.90507 122.966 5.99219 126.893 5.99219H128.651C129.427 5.99219 129.815 6.48543 129.815 7.47197C129.815 8.45848 129.427 8.95175 128.651 8.95175H126.801C124.549 8.95175 123.423 9.85407 123.423 11.6587V22.1977C123.423 23.2083 123.019 23.7136 122.213 23.7136C121.406 23.7136 121.003 23.2083 121.003 22.1977V11.7309ZM131.787 11.7309C131.787 7.90507 133.75 5.99219 137.677 5.99219H139.435C140.211 5.99219 140.599 6.48543 140.599 7.47197C140.599 8.45848 140.211 8.95175 139.435 8.95175H137.585C135.333 8.95175 134.207 9.85407 134.207 11.6587V22.1977C134.207 23.2083 133.803 23.7136 132.997 23.7136C132.19 23.7136 131.787 23.2083 131.787 22.1977V11.7309ZM143.695 23.5331C140.438 23.5331 138.81 21.933 138.81 18.7328V16.6755C138.81 13.4994 140.438 11.9113 143.695 11.9113H153.398V11.37C153.398 9.68563 152.462 8.84347 150.59 8.84347H147.371C146.61 8.84347 146.229 8.37428 146.229 7.43588C146.229 6.4734 146.61 5.99219 147.371 5.99219H150.59C154.044 5.99219 155.772 7.78477 155.772 11.37V18.4441C155.772 21.8368 154.113 23.5331 150.795 23.5331H143.695ZM150.658 20.7179C152.485 20.7179 153.398 19.9239 153.398 18.3358V14.4017H143.878C142.097 14.4017 141.207 15.1356 141.207 16.6034V18.4802C141.207 19.972 142.097 20.7179 143.878 20.7179H150.658Z" fill="#2C2E35" stroke="#2C2E35" stroke-width="0.366273"/>
<path d="M50.9041 19.312C50.9041 21.9224 49.0105 23.2275 45.2233 23.2275H37.6368C37.0013 23.2275 36.6836 22.891 36.6836 22.2179C36.6836 21.5448 37.0013 21.2082 37.6368 21.2082H45.2233C47.6526 21.2082 48.8673 20.5269 48.8673 19.1643V17.4159C48.8673 16.0861 47.7149 15.4212 45.4102 15.4212H41.8786C38.4776 15.4212 36.777 14.2063 36.777 11.7766V9.97895C36.777 7.45073 38.5212 6.1866 42.0092 6.1866H44.1022C44.7251 6.1866 45.0365 6.52317 45.0365 7.19627C45.0365 7.86935 44.7251 8.20589 44.1022 8.20589H42.0279C39.8728 8.20589 38.7954 8.82974 38.7954 10.0775V11.6042C38.7954 12.8191 39.8168 13.4265 41.8598 13.4265H45.2608C49.0228 13.4265 50.9041 14.7235 50.9041 17.3174V19.312ZM58.0755 15.766V22.3164C58.0755 23.0059 57.7391 23.3506 57.0664 23.3506C56.3811 23.3506 56.0387 23.0059 56.0387 22.3164V15.766L49.9282 7.95966C49.8161 7.82833 49.7288 7.7052 49.6665 7.59027C49.6167 7.45894 49.5918 7.30297 49.5918 7.12238C49.5918 6.79404 49.6852 6.53958 49.872 6.35899C50.0589 6.16199 50.3143 6.06348 50.6382 6.06348C50.8376 6.06348 50.9995 6.10453 51.124 6.1866C51.2487 6.26871 51.3794 6.40004 51.5164 6.58063L57.0664 13.8205L62.6348 6.55599C62.7595 6.39183 62.884 6.26871 63.0085 6.1866C63.1455 6.10453 63.32 6.06348 63.5318 6.06348C63.8182 6.06348 64.0551 6.16199 64.2419 6.35899C64.4288 6.53958 64.5222 6.79404 64.5222 7.12238C64.5222 7.30297 64.4909 7.45894 64.4288 7.59027C64.3664 7.7052 64.2856 7.82833 64.1857 7.95966L58.0755 15.766ZM68.3614 6.06348C68.5609 6.06348 68.7351 6.11273 68.8848 6.21125C69.0341 6.29332 69.1899 6.42466 69.3519 6.60525L80.6198 19.706V7.07314C80.6198 6.40004 80.9561 6.06348 81.6288 6.06348C82.3014 6.06348 82.6379 6.40004 82.6379 7.07314V22.3164C82.6379 23.0059 82.283 23.3506 81.5728 23.3506C81.3611 23.3506 81.1804 23.3014 81.0307 23.2029C80.8939 23.1044 80.7443 22.9648 80.5824 22.7843L69.3331 9.68343V22.3164C69.3331 23.0059 68.9905 23.3506 68.3055 23.3506C67.6451 23.3506 67.315 23.0059 67.315 22.3164V7.12238C67.315 6.41645 67.6638 6.06348 68.3614 6.06348ZM91.487 8.20589H86.3857C85.7628 8.20589 85.4512 7.86935 85.4512 7.19627C85.4512 6.52317 85.7628 6.1866 86.3857 6.1866H98.5879C99.2231 6.1866 99.5409 6.51496 99.5409 7.17163C99.5409 7.86115 99.2231 8.20589 98.5879 8.20589H93.5051V22.3164C93.5051 23.0059 93.175 23.3506 92.5146 23.3506C91.8296 23.3506 91.487 23.0059 91.487 22.3164V8.20589Z" fill="#2C2E35" stroke="#2C2E35" stroke-width="0.732546"/>
<path fill-rule="evenodd" clip-rule="evenodd" d="M14.4224 29.0985C22.3877 29.0985 28.8448 22.7205 28.8448 14.8528C28.8448 14.4867 28.8308 14.1238 28.8034 13.7646C28.741 14.1459 28.6456 14.5132 28.5167 14.8528C27.5334 17.443 20.8774 22.6728 18.3554 23.9184C15.7856 25.1875 9.9915 26.9157 7.10801 27.1331C9.2525 28.3822 11.7527 29.0985 14.4224 29.0985ZM4.72599 25.3986C6.25924 24.9362 11.2193 23.3957 14.0943 21.9757C18.6832 19.7093 20.3221 17.7667 20.3221 17.7667C21.3055 16.7954 21.9611 15.5004 20.9777 14.8528C20.248 14.3723 17.8939 15.4963 16.0584 16.3727C15.4203 16.6774 14.8448 16.9522 14.4221 17.1192C14.4221 17.1192 9.62666 18.9139 7.21085 19.7093C6.22751 20.0331 4.38367 20.3812 2.6219 20.0331C2.02707 19.9156 1.34587 19.6275 0.719368 19.3081C1.50667 21.672 2.90342 23.7626 4.72599 25.3986ZM0.013429 15.4731L0.327427 14.8528C0.327427 14.8528 3.60526 9.02498 9.50533 5.78729C14.7194 2.92607 20.4454 2.59337 21.7065 2.55469C19.5688 1.31667 17.0795 0.606934 14.4224 0.606934C6.45713 0.606934 0 6.985 0 14.8528C0 15.0606 0.00450699 15.2674 0.013429 15.4731ZM23.5817 3.84806C25.2701 5.22074 26.6372 6.96516 27.5544 8.95457C27.4449 8.85898 27.3286 8.77408 27.2056 8.7012C26.2223 8.09944 23.6455 7.69183 20.3221 8.93173C17.9663 9.81065 15.8697 10.8357 14.1652 11.6689C12.5495 12.4588 11.2862 13.0764 10.4887 13.234C9.44918 13.4393 8.84977 13.3959 8.52197 12.9102C8.19421 12.4246 8.52197 11.6151 9.50533 10.3201C10.4887 9.02498 13.7665 6.75859 16.061 5.78729C17.8902 5.01293 21.8244 4.17425 23.5817 3.84806Z" fill="#2C2E35"/>
</svg>
