<svg width="121" height="37" viewBox="0 0 121 37" fill="none" xmlns="http://www.w3.org/2000/svg">
<path fill-rule="evenodd" clip-rule="evenodd" d="M77.8914 5.02758C81.3189 3.05854 85.2967 1.72474 89.7806 1.0409C93.6191 0.455739 99.3992 1.02765 103.876 2.43607C106.09 3.13267 107.503 3.78901 107.016 3.89554C106.53 4.00207 105.32 3.82731 104.328 3.50772C101.36 2.55192 93.3132 2.80278 89.5044 3.96967C85.6992 5.13558 80.9532 7.97794 78.0026 10.8576C77.252 11.5901 76.7301 11.9389 76.2672 12.2482C76.0895 12.367 75.9205 12.4799 75.7506 12.6065H72.5805H68.8624C69.3245 11.9378 74.5399 6.95293 77.8914 5.02758ZM53.4563 30.5244C53.5755 29.8291 54.6845 24.282 55.8766 18.4844L58.0436 7.9426H60.7684H63.573C63.4256 8.55035 62.1401 14.2385 61.1406 19.2335C59.54 27.2315 59.1323 29.0761 58.7048 30.5244H56.3369H53.4563ZM1.19378 27.9413C-0.807196 24.1647 3.32403 17.3838 8.55585 15.8575C12.7656 14.6298 16.604 16.1305 16.604 19.0048C16.604 21.4348 12.4904 24.636 8.40646 25.3836C6.44773 25.742 6.28627 25.931 6.99853 27.0287C7.59762 27.9516 10.9948 27.595 14.0507 26.8004C14.3529 26.7191 14.628 26.6445 14.8752 26.5775C15.6444 26.3691 16.1449 26.2335 16.3566 26.1922C16.3086 26.749 16.2355 28.1198 16.195 28.9696C15.4483 29.3864 13.1111 30.5691 8.55585 30.6859C4.59011 30.7876 2.23753 29.9103 1.19378 27.9413ZM19.0794 21.9335C20.3303 19.3302 22.3278 17.3612 24.8519 16.2424C26.9213 15.3254 30.9138 15.1468 32.9235 15.5642C32.9235 15.5642 32.4408 17.5649 32.1823 18.595C32.1823 18.595 30.5838 18.55 29.834 18.55C29.8148 18.55 29.784 18.5493 29.7432 18.5484C29.3595 18.5401 28.0933 18.5127 27.3388 18.8408C24.8615 20.0317 23.192 24.9757 24.7528 26.499C25.4807 27.2093 29.3237 26.747 31.5365 26.3959C31.5365 26.3959 31.4157 27.6394 31.1169 29.0843C31.1169 29.2241 30.2306 30.0075 27.63 30.4542C20.0049 31.7655 16.1835 27.9575 19.0794 21.9335ZM44.5447 18.3466C45.3807 17.2416 46.1697 16.5942 47.09 15.9936C49.8778 14.1744 54.183 16.751 52.8445 21.6017C51.4863 26.5255 47.0619 30.5004 42.9221 30.5166L40.82 30.5244L40.2516 33.3472C39.9387 34.8994 39.5906 36.4463 39.477 36.7835C38.866 36.7835 37.9428 36.7975 36.992 36.8119C35.9822 36.8272 34.9411 36.8429 34.2094 36.8429C34.2094 36.5381 35.147 31.6781 36.2934 26.0429L38.3774 15.7972H41.1258H43.7036C43.4332 16.95 43.1568 18.2081 42.9457 19.399L42.7487 20.689L44.5447 18.3466ZM62.5707 23.7032C63.3745 20.6783 65.3604 18.0627 67.8126 16.7991C69.8734 15.7368 72.643 15.2451 77.8689 16.7312L78.0962 16.1123L80.8391 16.4221L79.6565 20.0558C79.5382 20.4195 79.4188 20.7755 79.3023 21.123C78.6143 23.1756 78.0261 24.9301 78.3421 26.2007C78.5641 27.0932 79.6101 27.7465 80.1728 28.0979C80.2336 28.1359 80.2888 28.1704 80.3367 28.2013C80.3367 28.2013 79.3854 29.086 78.251 30.0762C76.5581 29.7298 75.5102 28.5713 75.5102 28.5713C75.5102 28.5713 74.5107 29.25 73.5052 29.7571C71.2944 30.873 66.551 30.7591 64.5033 29.5407C62.2533 28.2019 61.7659 26.7302 62.5707 23.7032ZM84.5871 19.6346C84.6274 19.5733 84.8783 18.869 85.2854 17.6817L86.0452 15.7972H93.5778H101.726C101.511 16.0902 98.8413 18.8138 96.0763 21.6002C93.7277 23.9677 91.8446 26.2068 91.2755 26.8835C91.1747 27.0034 91.1151 27.0742 91.1014 27.0881H94.5708H98.4384C98.4384 27.0881 97.5172 29.5589 97.0677 30.5248L97.0445 30.5248C96.8909 30.5248 95.8738 30.5244 88.9033 30.5244H81.2551L86.003 25.3861C88.7142 22.3413 90.7623 19.9615 90.9918 19.6346H87.5075H84.5871ZM84.5813 19.6346H84.5871C84.5833 19.6404 84.5813 19.6404 84.5813 19.6346ZM68.6058 27.5304C71.4946 29.8701 76.2888 22.0297 73.6857 19.2227C72.7149 18.1756 72.6133 18.1511 71.3482 18.6542C68.6843 19.7141 66.7366 26.0169 68.6058 27.5304ZM8.4301 22.4568C10.0991 22.071 11.6298 20.4377 11.2434 19.4549C10.5634 17.7254 7.04682 19.7185 7.04682 21.8339C7.04682 22.6124 7.28776 22.7204 8.4301 22.4568ZM44.6389 27.3031C46.0714 26.3875 47.9275 22.6183 47.6972 21.0936C47.3612 18.8673 45.8929 19.7568 43.0835 23.8883C42.3527 24.9634 41.7546 26.2103 41.7546 26.6585C41.7546 27.8696 43.2355 28.2005 44.6389 27.3031ZM101.948 23.6813C102.752 20.6563 104.738 18.0407 107.19 16.7771C109.251 15.7148 112.02 15.2231 117.246 16.7093L117.474 16.0904L120.216 16.4001L119.034 20.0338C118.916 20.3975 118.796 20.7535 118.68 21.101C117.992 23.1536 117.403 24.9082 117.719 26.1788C117.941 27.0712 118.987 27.7245 119.55 28.0759C119.611 28.114 119.666 28.1484 119.714 28.1793C119.714 28.1793 118.763 29.064 117.628 30.0542C115.935 29.7079 114.888 28.5493 114.888 28.5493C114.888 28.5493 113.888 29.2281 112.882 29.7352C110.672 30.851 105.928 30.7371 103.881 29.5187C101.631 28.18 101.143 26.7082 101.948 23.6813ZM107.983 27.5084C110.872 29.8481 115.666 22.0078 113.063 19.2008C112.092 18.1537 111.991 18.1291 110.726 18.6323C108.062 19.6922 106.114 25.9949 107.983 27.5084Z" fill="#2C2E35"/>
</svg>
